<svg viewBox="0 0 337 261" fill="none" xmlns="http://www.w3.org/2000/svg">
  <g clip-path="url(#clip0)">
    <path d="M49.5054 35.2813C52.7961 35.2807 55.9852 36.4214 58.5294 38.509C61.0735 40.5966 62.8153 43.502 63.4578 46.7301C64.1004 49.9582 63.604 53.3093 62.0533 56.2124C60.5025 59.1155 57.9934 61.3909 54.9534 62.651C51.9134 63.9111 48.5306 64.0779 45.3814 63.1229C42.2323 62.1679 39.5116 60.1503 37.6829 57.4138C35.8543 54.6773 35.0309 51.3913 35.353 48.1157C35.675 44.84 37.1227 41.7774 39.4493 39.4496C40.7667 38.1243 42.3338 37.0735 44.0599 36.358C45.786 35.6425 47.6369 35.2766 49.5054 35.2813V35.2813ZM49.5054 19.2986C42.5156 19.2978 35.7418 21.7214 30.3383 26.1562C24.9348 30.5911 21.2359 36.7629 19.8719 43.6198C18.5079 50.4768 19.5632 57.5947 22.858 63.7607C26.1528 69.9266 31.4833 74.759 37.941 77.4345C44.3988 80.1099 51.5842 80.4629 58.2729 78.4331C64.9617 76.4034 70.7398 72.1166 74.6227 66.3032C78.5057 60.4898 80.2531 53.5096 79.5674 46.5519C78.8816 39.5943 75.805 33.0897 70.8619 28.1466C68.0604 25.3373 64.7315 23.1094 61.0664 21.5909C57.4013 20.0725 53.4724 19.2935 49.5054 19.2986Z" fill="white"/>
    <path d="M81.1567 65.1498L97.0164 81.0132C97.949 81.9508 98.4725 83.2196 98.4725 84.5422C98.4725 85.8648 97.949 87.1336 97.0164 88.0712L88.0511 97.0301C87.5881 97.494 87.0381 97.862 86.4327 98.1131C85.8273 98.3643 85.1783 98.4935 84.5229 98.4935C83.8675 98.4935 83.2186 98.3643 82.6132 98.1131C82.0078 97.862 81.4578 97.494 80.9948 97.0301L65.1436 81.1752" stroke="#6CC1B3" stroke-width="1.25" stroke-miterlimit="10"/>
    <path d="M17.8539 33.8663L1.99418 18.0115C1.0616 17.0739 0.538086 15.8051 0.538086 14.4825C0.538086 13.1599 1.0616 11.8911 1.99418 10.9535L10.9595 1.99466C11.4225 1.53073 11.9725 1.16268 12.5779 0.911564C13.1833 0.660446 13.8323 0.531189 14.4877 0.531189C15.143 0.531189 15.792 0.660446 16.3974 0.911564C17.0028 1.16268 17.5528 1.53073 18.0158 1.99466L33.867 17.8495" stroke="#6CC1B3" stroke-width="1.25" stroke-miterlimit="10"/>
    <path d="M33.867 81.1752L18.0158 97.0301C17.5528 97.494 17.0028 97.862 16.3974 98.1131C15.792 98.3643 15.143 98.4935 14.4877 98.4935C13.8323 98.4935 13.1833 98.3643 12.5779 98.1131C11.9725 97.862 11.4225 97.494 10.9595 97.0301L1.99418 88.0883C1.0616 87.1506 0.538086 85.8818 0.538086 84.5593C0.538086 83.2367 1.0616 81.9679 1.99418 81.0303L17.8539 65.1498" stroke="#6CC1B3" stroke-miterlimit="10"/>
    <path d="M65.1436 17.8495L80.9948 1.99466C81.4578 1.53073 82.0078 1.16268 82.6132 0.911564C83.2186 0.660446 83.8675 0.531189 84.5229 0.531189C85.1783 0.531189 85.8273 0.660446 86.4327 0.911564C87.0381 1.16268 87.5881 1.53073 88.0511 1.99466L97.0164 10.9535C97.949 11.8911 98.4725 13.1599 98.4725 14.4825C98.4725 15.8051 97.949 17.0739 97.0164 18.0115L81.1567 33.8663" stroke="#6CC1B3" stroke-miterlimit="10"/>
    <path d="M287.606 35.2813C290.896 35.2807 294.085 36.4214 296.629 38.509C299.174 40.5966 300.915 43.502 301.558 46.7301C302.201 49.9582 301.704 53.3093 300.153 56.2124C298.603 59.1155 296.094 61.3909 293.054 62.651C290.014 63.9111 286.631 64.0779 283.482 63.1229C280.332 62.1679 277.612 60.1503 275.783 57.4138C273.954 54.6773 273.131 51.3913 273.453 48.1157C273.775 44.84 275.223 41.7774 277.549 39.4496C278.867 38.1243 280.434 37.0735 282.16 36.358C283.886 35.6425 285.737 35.2766 287.606 35.2813ZM287.606 19.2986C280.616 19.2978 273.842 21.7214 268.438 26.1562C263.035 30.5911 259.336 36.7629 257.972 43.6198C256.608 50.4768 257.663 57.5947 260.958 63.7607C264.253 69.9266 269.583 74.759 276.041 77.4345C282.499 80.1099 289.684 80.4629 296.373 78.4331C303.062 76.4034 308.84 72.1166 312.723 66.3032C316.606 60.4898 318.353 53.5096 317.667 46.5519C316.982 39.5943 313.905 33.0897 308.962 28.1466C306.161 25.3373 302.832 23.1094 299.167 21.5909C295.501 20.0725 291.573 19.2935 287.606 19.2986V19.2986Z" fill="white"/>
    <path d="M319.24 65.1498L335.099 81.0132C336.032 81.9508 336.556 83.2196 336.556 84.5422C336.556 85.8648 336.032 87.1336 335.099 88.0712L326.134 97.0301C325.671 97.494 325.121 97.862 324.516 98.1131C323.91 98.3643 323.261 98.4935 322.606 98.4935C321.951 98.4935 321.302 98.3643 320.696 98.1131C320.091 97.862 319.541 97.494 319.078 97.0301L303.227 81.1752" stroke="#6CC1B3" stroke-miterlimit="10"/>
    <path d="M255.954 33.8663L240.095 18.0115C239.162 17.0739 238.639 15.8051 238.639 14.4825C238.639 13.1599 239.162 11.8911 240.095 10.9535L249.06 1.99466C249.523 1.53073 250.073 1.16268 250.678 0.911564C251.284 0.660446 251.933 0.531189 252.588 0.531189C253.244 0.531189 253.893 0.660446 254.498 0.911564C255.103 1.16268 255.653 1.53073 256.116 1.99466L271.968 17.8495" stroke="#6CC1B3" stroke-miterlimit="10"/>
    <path d="M271.968 81.1752L256.116 97.03C255.653 97.494 255.103 97.862 254.498 98.1131C253.893 98.3642 253.244 98.4935 252.588 98.4935C251.933 98.4935 251.284 98.3642 250.678 98.1131C250.073 97.862 249.523 97.494 249.06 97.03L240.095 88.0882C239.162 87.1506 238.639 85.8818 238.639 84.5592C238.639 83.2367 239.162 81.9679 240.095 81.0303L255.954 65.1669" stroke="#6CC1B3" stroke-miterlimit="10"/>
    <path d="M303.244 17.8495L319.095 1.99466C319.558 1.53073 320.108 1.16268 320.713 0.911564C321.319 0.660446 321.968 0.531189 322.623 0.531189C323.278 0.531189 323.927 0.660446 324.533 0.911564C325.138 1.16268 325.688 1.53073 326.151 1.99466L335.117 10.9535C336.049 11.8911 336.573 13.1599 336.573 14.4825C336.573 15.8051 336.049 17.0739 335.117 18.0115L319.24 33.8663" stroke="#6CC1B3" stroke-miterlimit="10"/>
    <path d="M199.248 144.825L194.987 30.4907C194.988 27.6539 194.43 24.8446 193.345 22.2234C192.26 19.6023 190.67 17.2206 188.664 15.2147C186.659 13.2087 184.278 11.6177 181.657 10.5326C179.037 9.44745 176.228 8.88951 173.392 8.89063H162.867C157.139 8.89063 151.647 11.1663 147.597 15.2172C143.547 19.268 141.272 24.762 141.272 30.4907L137.863 144.825" stroke="#6CC1B3" stroke-linecap="round" stroke-linejoin="round"/>
    <path d="M198.455 144.825H204.932C207.077 144.825 209.134 145.677 210.651 147.194C212.167 148.711 213.02 150.769 213.02 152.914V168.922C213.02 171.068 212.167 173.125 210.651 174.643C209.134 176.16 207.077 177.012 204.932 177.012H131.752C130.69 177.013 129.637 176.805 128.655 176.399C127.673 175.993 126.78 175.397 126.028 174.646C125.276 173.894 124.68 173.002 124.273 172.02C123.866 171.038 123.656 169.986 123.656 168.922V152.914C123.656 151.851 123.866 150.799 124.273 149.817C124.68 148.835 125.276 147.942 126.028 147.191C126.78 146.44 127.673 145.844 128.655 145.438C129.637 145.032 130.69 144.824 131.752 144.825H179.809" stroke="#6CC1B3" stroke-linecap="round" stroke-linejoin="round"/>
    <path d="M158.606 183.413C152.197 175.878 130.713 176.91 130.713 176.91H205.955C205.955 176.91 186.593 175.878 178.454 183.337C170.886 190.275 165.262 191.23 158.606 183.413Z" fill="#6CC1B3"/>
    <path d="M184.59 244.753C184.639 246.917 184.256 249.07 183.462 251.084C182.668 253.098 181.48 254.933 179.967 256.481C178.454 258.029 176.647 259.26 174.652 260.1C172.658 260.939 170.515 261.372 168.351 261.372C166.186 261.372 164.044 260.939 162.049 260.1C160.054 259.26 158.247 258.029 156.734 256.481C155.221 254.933 154.033 253.098 153.239 251.084C152.445 249.07 152.062 246.917 152.112 244.753C152.112 235.786 168.304 214.177 168.304 214.177C168.304 214.177 184.59 235.786 184.59 244.753Z" fill="#6CC1B3"/>
    <path d="M178.752 238.965H174.023L170.332 230.441C170.309 230.386 170.27 230.338 170.22 230.305C170.17 230.272 170.111 230.254 170.051 230.253H166.694C166.634 230.253 166.576 230.27 166.526 230.301C166.477 230.333 166.437 230.379 166.412 230.432L162.68 238.957H157.916C157.836 238.957 157.759 238.988 157.702 239.043C157.644 239.099 157.611 239.175 157.609 239.255V241.522C157.609 241.563 157.617 241.603 157.632 241.64C157.648 241.677 157.67 241.711 157.699 241.739C157.727 241.768 157.761 241.79 157.798 241.806C157.836 241.821 157.875 241.829 157.916 241.829H161.469L157.796 250.191C157.777 250.239 157.77 250.29 157.774 250.34C157.779 250.391 157.796 250.44 157.823 250.482C157.851 250.525 157.889 250.56 157.933 250.585C157.977 250.61 158.027 250.624 158.078 250.626H160.83C160.891 250.627 160.95 250.61 161 250.576C161.05 250.543 161.089 250.495 161.111 250.439L168.287 233.39L175.403 250.439C175.426 250.495 175.464 250.543 175.515 250.576C175.565 250.61 175.624 250.627 175.684 250.626H178.625C178.675 250.626 178.725 250.613 178.769 250.589C178.814 250.565 178.851 250.53 178.879 250.488C178.907 250.446 178.924 250.398 178.929 250.347C178.933 250.297 178.925 250.246 178.906 250.2L175.216 241.821H178.718C178.798 241.819 178.874 241.785 178.93 241.728C178.985 241.671 179.017 241.594 179.017 241.514V239.289C179.024 239.211 179 239.134 178.951 239.073C178.901 239.013 178.83 238.974 178.752 238.965V238.965Z" fill="#15202A"/>
  </g>
  <defs>
    <clipPath id="clip0">
      <rect width="337" height="261" fill="white"/>
    </clipPath>
  </defs>
</svg>
