<?xml version="1.0" encoding="utf-8"?>
<!-- Generator: Adobe Illustrator 25.4.1, SVG Export Plug-In . SVG Version: 6.00 Build 0)  -->
<svg version="1.1" id="Layer_1" xmlns="http://www.w3.org/2000/svg" xmlns:xlink="http://www.w3.org/1999/xlink" x="0px" y="0px"
	 viewBox="0 0 337 261" style="enable-background:new 0 0 337 261;" xml:space="preserve">
<style type="text/css">
	.st0{fill:#FFFFFF;}
	.st1{fill:none;stroke:#6CC1B3;stroke-width:1.122;stroke-miterlimit:10;}
	.st2{fill:none;stroke:#6CC1B3;stroke-width:0.8976;stroke-miterlimit:10;}
	.st3{fill:none;stroke:#6CC1B3;stroke-width:0.8976;stroke-linecap:round;stroke-linejoin:round;}
	.st4{fill-rule:evenodd;clip-rule:evenodd;fill:#FAFAFA;}
	.st5{fill-rule:evenodd;clip-rule:evenodd;fill:#6CC1B3;}
	.st6{fill-rule:evenodd;clip-rule:evenodd;fill:#15202A;}
	.st7{fill-rule:evenodd;clip-rule:evenodd;fill:#E2E2E3;}
	.st8{fill:#15202A;}
</style>
<g>
	<g>
		<path class="st0" d="M61.7,70.4c3,0,5.8,1,8.1,2.9c2.3,1.9,3.8,4.5,4.4,7.4c0.6,2.9,0.1,5.9-1.3,8.5c-1.4,2.6-3.6,4.6-6.4,5.8
			c-2.7,1.1-5.8,1.3-8.6,0.4c-2.8-0.9-5.3-2.7-6.9-5.1c-1.6-2.5-2.4-5.4-2.1-8.3c0.3-2.9,1.6-5.7,3.7-7.8c1.2-1.2,2.6-2.1,4.1-2.8
			C58.4,70.7,60,70.4,61.7,70.4L61.7,70.4z M61.7,56.1c-6.3,0-12.4,2.2-17.2,6.2c-4.9,4-8.2,9.5-9.4,15.7
			c-1.2,6.2-0.3,12.5,2.7,18.1c3,5.5,7.7,9.9,13.5,12.3c5.8,2.4,12.2,2.7,18.2,0.9c6-1.8,11.2-5.7,14.7-10.9
			c3.5-5.2,5.1-11.5,4.4-17.7c-0.6-6.2-3.4-12.1-7.8-16.5c-2.5-2.5-5.5-4.5-8.8-5.9C68.8,56.8,65.3,56.1,61.7,56.1z"/>
		<path class="st1" d="M90.1,97.2l14.2,14.2c0.8,0.8,1.3,2,1.3,3.2c0,1.2-0.5,2.3-1.3,3.2l-8,8c-0.4,0.4-0.9,0.7-1.5,1
			c-0.5,0.2-1.1,0.3-1.7,0.3s-1.2-0.1-1.7-0.3c-0.5-0.2-1-0.6-1.5-1l-14.2-14.2"/>
		<path class="st1" d="M33.3,69.1L19.1,54.9c-0.8-0.8-1.3-2-1.3-3.2c0-1.2,0.5-2.3,1.3-3.2l8-8c0.4-0.4,0.9-0.7,1.5-1
			c0.5-0.2,1.1-0.3,1.7-0.3c0.6,0,1.2,0.1,1.7,0.3c0.5,0.2,1,0.6,1.5,1l14.2,14.2"/>
		<path class="st2" d="M47.7,111.6l-14.2,14.2c-0.4,0.4-0.9,0.7-1.5,1c-0.5,0.2-1.1,0.3-1.7,0.3c-0.6,0-1.2-0.1-1.7-0.3
			c-0.5-0.2-1-0.6-1.5-1l-8-8c-0.8-0.8-1.3-2-1.3-3.2c0-1.2,0.5-2.3,1.3-3.2l14.2-14.3"/>
		<path class="st2" d="M75.7,54.8L90,40.5c0.4-0.4,0.9-0.7,1.5-1c0.5-0.2,1.1-0.3,1.7-0.3s1.2,0.1,1.7,0.3c0.5,0.2,1,0.6,1.5,1l8,8
			c0.8,0.8,1.3,2,1.3,3.2c0,1.2-0.5,2.3-1.3,3.2L90.1,69.1"/>
		<path class="st0" d="M275.4,70.4c3,0,5.8,1,8.1,2.9c2.3,1.9,3.8,4.5,4.4,7.4c0.6,2.9,0.1,5.9-1.3,8.5c-1.4,2.6-3.6,4.6-6.4,5.8
			c-2.7,1.1-5.8,1.3-8.6,0.4c-2.8-0.9-5.3-2.7-6.9-5.1c-1.6-2.5-2.4-5.4-2.1-8.3c0.3-2.9,1.6-5.7,3.7-7.8c1.2-1.2,2.6-2.1,4.1-2.8
			C272.1,70.7,273.7,70.4,275.4,70.4z M275.4,56.1c-6.3,0-12.4,2.2-17.2,6.2c-4.8,4-8.2,9.5-9.4,15.7c-1.2,6.2-0.3,12.5,2.7,18.1
			c3,5.5,7.7,9.9,13.5,12.3c5.8,2.4,12.2,2.7,18.2,0.9c6-1.8,11.2-5.7,14.7-10.9c3.5-5.2,5.1-11.5,4.4-17.7
			c-0.6-6.2-3.4-12.1-7.8-16.5c-2.5-2.5-5.5-4.5-8.8-5.9C282.5,56.8,279,56.1,275.4,56.1L275.4,56.1z"/>
		<path class="st2" d="M303.8,97.2l14.2,14.2c0.8,0.8,1.3,2,1.3,3.2c0,1.2-0.5,2.3-1.3,3.2l-8,8c-0.4,0.4-0.9,0.7-1.5,1
			c-0.5,0.2-1.1,0.3-1.7,0.3c-0.6,0-1.2-0.1-1.7-0.3c-0.5-0.2-1-0.6-1.5-1l-14.2-14.2"/>
		<path class="st2" d="M247,69.1l-14.2-14.2c-0.8-0.8-1.3-2-1.3-3.2c0-1.2,0.5-2.3,1.3-3.2l8-8c0.4-0.4,0.9-0.7,1.5-1
			c0.5-0.2,1.1-0.3,1.7-0.3c0.6,0,1.2,0.1,1.7,0.3c0.5,0.2,1,0.6,1.5,1l14.2,14.2"/>
		<path class="st2" d="M261.4,111.6l-14.2,14.2c-0.4,0.4-0.9,0.7-1.5,1s-1.1,0.3-1.7,0.3c-0.6,0-1.2-0.1-1.7-0.3
			c-0.5-0.2-1-0.6-1.5-1l-8-8c-0.8-0.8-1.3-2-1.3-3.2c0-1.2,0.5-2.3,1.3-3.2L247,97.2"/>
		<path class="st2" d="M289.5,54.8l14.2-14.2c0.4-0.4,0.9-0.7,1.5-1c0.5-0.2,1.1-0.3,1.7-0.3c0.6,0,1.2,0.1,1.7,0.3
			c0.5,0.2,1,0.6,1.5,1l8,8c0.8,0.8,1.3,2,1.3,3.2c0,1.2-0.5,2.3-1.3,3.2l-14.3,14.2"/>
	</g>
</g>
<path class="st3" d="M161.8,39.2c-5.1,0-10.1,2-13.7,5.7c-3.6,3.6-5.7,8.6-5.7,13.7l-3.1,102.6"/>
<path class="st3" d="M160.5,189.8l-26.6,0.4c-1,0-1.9-0.2-2.8-0.6c-0.9-0.4-1.7-0.9-2.4-1.6c-0.7-0.7-1.2-1.5-1.6-2.4
	c-0.4-0.9-0.6-1.8-0.6-2.8v-14.4c0-1,0.2-1.9,0.6-2.8c0.4-0.9,0.9-1.7,1.6-2.4c0.7-0.7,1.5-1.2,2.4-1.6s1.8-0.6,2.8-0.6h16.7"/>
<polyline class="st3" points="161.8,39.2 173.1,55.3 161.8,76.3 173.1,86.8 163.1,100.2 171.7,114.7 159.2,129.6 165.9,148.4 
	154.6,171.7 163.8,182.5 "/>
<g>
	<path class="st3" d="M193.5,192.9L193,90.2c0.1-5.1-1.8-10.1-5.3-13.8c-3.5-3.7-8.4-5.9-13.6-6"/>
	<path class="st3" d="M175.4,192.4L199,193c1,0,1.9,0.2,2.8,0.6c0.9,0.4,1.7,0.9,2.3,1.6c0.7,0.7,1.2,1.5,1.5,2.4s0.5,1.8,0.5,2.8
		l-0.4,14.4c0,1-0.2,1.9-0.6,2.8c-0.4,0.9-0.9,1.7-1.6,2.3c-0.7,0.7-1.5,1.2-2.4,1.5c-0.9,0.3-1.8,0.5-2.8,0.5l-19.2-0.5"/>
	<polyline class="st3" points="174.1,70.3 181,86.6 173.2,107.4 184.2,117.6 171.3,131.3 179.6,146 165.2,162.1 171.4,178.5 
		162.3,201.5 179.1,221.4 	"/>
</g>
<path class="st4" d="M167,88.6l15.9,10c1.3,0.8,1.7,2.6,0.9,4l-10.8,17c-0.8,1.3-2.6,1.7-4,0.9l-15.9-10c-1.3-0.8-1.7-2.6-0.9-4
	l10.8-17C163.9,88.1,165.7,87.7,167,88.6z"/>
<path class="st4" d="M167,88.6l15.9,10c1.3,0.8,1.7,2.6,0.9,4l-10.8,17c-0.8,1.3-2.6,1.7-4,0.9l-15.9-10c-1.3-0.8-1.7-2.6-0.9-4
	l10.8-17C163.9,88.1,165.7,87.7,167,88.6z"/>
<path class="st5" d="M219.3,135l-1.8,2.9c-4.8,7.5-14.9,9.8-22.4,5l-73.4-46.5c-7.5-4.8-9.8-14.9-5-22.4l1.8-2.9
	c4.8-7.5,14.9-9.8,22.4-5l73.4,46.5C221.8,117.4,224.1,127.5,219.3,135z"/>
<path class="st6" d="M213.6,122.4c-0.4,0.6-1.1,0.7-1.8,0.3c-0.6-0.4-0.8-1.2-0.5-1.7c0.4-0.6,1.1-0.7,1.8-0.3
	C213.8,121.1,214,121.9,213.6,122.4z"/>
<path class="st6" d="M208.1,131.5c-0.4,0.6-1.1,0.7-1.8,0.3c-0.6-0.4-0.8-1.2-0.5-1.7c0.4-0.6,1.1-0.7,1.8-0.3
	C208.3,130.1,208.5,130.9,208.1,131.5z"/>
<path class="st6" d="M206.7,124.5c-0.4,0.6-1.1,0.7-1.8,0.3c-0.6-0.4-0.8-1.2-0.5-1.7c0.4-0.6,1.1-0.7,1.8-0.3
	C206.8,123.2,207,123.9,206.7,124.5z"/>
<path class="st6" d="M205.2,117.6c-0.4,0.6-1.1,0.7-1.8,0.3c-0.6-0.4-0.8-1.2-0.5-1.7c0.4-0.6,1.1-0.7,1.8-0.3
	C205.3,116.3,205.5,117,205.2,117.6z"/>
<path class="st6" d="M197.2,112.3c-0.4,0.6-1.1,0.7-1.8,0.3c-0.6-0.4-0.8-1.2-0.5-1.7c0.4-0.6,1.1-0.7,1.8-0.3
	C197.3,110.9,197.6,111.7,197.2,112.3z"/>
<path class="st6" d="M198,119.4c-0.4,0.6-1.1,0.7-1.8,0.3c-0.6-0.4-0.8-1.2-0.5-1.7c0.4-0.6,1.1-0.7,1.8-0.3
	C198.2,118.1,198.4,118.9,198,119.4z"/>
<path class="st6" d="M199.8,126.4c-0.4,0.6-1.1,0.7-1.8,0.3c-0.6-0.4-0.8-1.2-0.5-1.7c0.4-0.6,1.1-0.7,1.8-0.3
	C199.9,125,200.2,125.8,199.8,126.4z"/>
<path class="st6" d="M201.2,133.7c-0.4,0.6-1.1,0.7-1.8,0.3c-0.6-0.4-0.8-1.2-0.5-1.7c0.4-0.6,1.1-0.7,1.8-0.3
	C201.3,132.4,201.5,133.1,201.2,133.7z"/>
<path class="st6" d="M194.2,135.2c-0.4,0.6-1.1,0.7-1.8,0.3c-0.6-0.4-0.8-1.2-0.5-1.7c0.4-0.6,1.1-0.7,1.8-0.3
	C194.3,133.9,194.6,134.7,194.2,135.2z"/>
<path class="st6" d="M192.8,128c-0.4,0.6-1.1,0.7-1.8,0.3c-0.6-0.4-0.8-1.2-0.5-1.7c0.4-0.6,1.1-0.7,1.8-0.3
	C192.9,126.7,193.1,127.5,192.8,128z"/>
<path class="st6" d="M191.4,121.2c-0.4,0.6-1.1,0.7-1.8,0.3c-0.6-0.4-0.8-1.2-0.5-1.7c0.4-0.6,1.1-0.7,1.8-0.3
	C191.5,119.9,191.7,120.6,191.4,121.2z"/>
<path class="st6" d="M189.7,114.3c-0.4,0.6-1.1,0.7-1.8,0.3c-0.6-0.4-0.8-1.2-0.5-1.7c0.4-0.6,1.1-0.7,1.8-0.3
	C189.9,113,190.1,113.8,189.7,114.3z"/>
<path class="st6" d="M184.3,122.9c-0.4,0.6-1.1,0.7-1.8,0.3c-0.6-0.4-0.8-1.2-0.5-1.7c0.4-0.6,1.1-0.7,1.8-0.3
	C184.5,121.5,184.7,122.3,184.3,122.9z"/>
<path class="st6" d="M157.5,86.8c-0.4,0.6-1.1,0.7-1.8,0.3c-0.6-0.4-0.8-1.2-0.5-1.7c0.4-0.6,1.1-0.7,1.8-0.3
	C157.6,85.5,157.8,86.3,157.5,86.8z"/>
<path class="st6" d="M152,95.9c-0.4,0.6-1.1,0.7-1.8,0.3c-0.6-0.4-0.8-1.2-0.5-1.7c0.4-0.6,1.1-0.7,1.8-0.3
	C152.1,94.6,152.3,95.3,152,95.9z"/>
<path class="st6" d="M150.5,88.9c-0.4,0.6-1.1,0.7-1.8,0.3c-0.6-0.4-0.8-1.2-0.5-1.7c0.4-0.6,1.1-0.7,1.8-0.3
	C150.6,87.6,150.9,88.4,150.5,88.9z"/>
<path class="st6" d="M149,82c-0.4,0.6-1.1,0.7-1.8,0.3c-0.6-0.4-0.8-1.2-0.5-1.7c0.4-0.6,1.1-0.7,1.8-0.3
	C149.1,80.7,149.4,81.5,149,82z"/>
<path class="st6" d="M141,76.7c-0.4,0.6-1.1,0.7-1.8,0.3c-0.6-0.4-0.8-1.2-0.5-1.7c0.4-0.6,1.1-0.7,1.8-0.3
	C141.1,75.4,141.4,76.1,141,76.7z"/>
<path class="st6" d="M141.9,83.9c-0.4,0.6-1.1,0.7-1.8,0.3c-0.6-0.4-0.8-1.2-0.5-1.7c0.4-0.6,1.1-0.7,1.8-0.3
	C142,82.5,142.2,83.3,141.9,83.9z"/>
<path class="st6" d="M143.6,90.8c-0.4,0.6-1.1,0.7-1.8,0.3c-0.6-0.4-0.8-1.2-0.5-1.7c0.4-0.6,1.1-0.7,1.8-0.3
	C143.8,89.5,144,90.2,143.6,90.8z"/>
<path class="st6" d="M145,98.1c-0.4,0.6-1.1,0.7-1.8,0.3c-0.6-0.4-0.8-1.2-0.5-1.7c0.4-0.6,1.1-0.7,1.8-0.3
	C145.1,96.8,145.3,97.5,145,98.1z"/>
<path class="st6" d="M138,99.7c-0.4,0.6-1.1,0.7-1.8,0.3c-0.6-0.4-0.8-1.2-0.5-1.7c0.4-0.6,1.1-0.7,1.8-0.3
	C138.1,98.3,138.4,99.1,138,99.7z"/>
<path class="st6" d="M136.6,92.5c-0.4,0.6-1.1,0.7-1.8,0.3c-0.6-0.4-0.8-1.2-0.5-1.7c0.4-0.6,1.1-0.7,1.8-0.3
	C136.7,91.1,137,91.9,136.6,92.5z"/>
<path class="st6" d="M135.2,85.6c-0.4,0.6-1.1,0.7-1.8,0.3c-0.6-0.4-0.8-1.2-0.5-1.7c0.4-0.6,1.1-0.7,1.8-0.3
	C135.3,84.3,135.5,85,135.2,85.6z"/>
<path class="st6" d="M133.5,78.8c-0.4,0.6-1.1,0.7-1.8,0.3c-0.6-0.4-0.8-1.2-0.5-1.7c0.4-0.6,1.1-0.7,1.8-0.3
	C133.7,77.4,133.9,78.2,133.5,78.8z"/>
<path class="st6" d="M128.2,87.3c-0.4,0.6-1.1,0.7-1.8,0.3c-0.6-0.4-0.8-1.2-0.5-1.7c0.4-0.6,1.1-0.7,1.8-0.3
	C128.3,86,128.5,86.7,128.2,87.3z"/>
<path class="st7" d="M184,103.6l-10,15.9c-0.8,1.3-2.6,1.7-4,0.9l-17-10.8c-1.3-0.9-1.7-2.6-0.9-4l10-15.9c0.8-1.3,2.6-1.7,4-0.9
	l17,10.8C184.4,100.4,184.8,102.2,184,103.6z"/>
<path class="st4" d="M172.9,182.1l-14,6.1c-1.2,0.5-2.6,0-3.2-1.2l-7.4-14.7c-0.6-1.2-0.1-2.5,1.1-3l14-6.1c1.2-0.5,2.6,0,3.2,1.2
	L174,179C174.6,180.2,174.1,181.5,172.9,182.1z"/>
<path class="st4" d="M172.9,182.1l-14,6.1c-1.2,0.5-2.6,0-3.2-1.2l-7.4-14.7c-0.6-1.2-0.1-2.5,1.1-3l14-6.1c1.2-0.5,2.6,0,3.2,1.2
	L174,179C174.6,180.2,174.1,181.5,172.9,182.1z"/>
<path class="st5" d="M117.1,196.3l-1.3-2.5c-3.3-6.5-0.5-14.2,6.2-17.1l65-28.2c6.7-2.9,14.8,0,18.1,6.5l1.3,2.5
	c3.3,6.5,0.5,14.2-6.2,17.1l-65,28.2C128.5,205.7,120.4,202.8,117.1,196.3z"/>
<path class="st6" d="M128.5,198.1c-0.2-0.5,0-1.1,0.6-1.3c0.6-0.2,1.2,0,1.4,0.4c0.2,0.5,0,1.1-0.6,1.3
	C129.4,198.7,128.8,198.5,128.5,198.1z"/>
<path class="st6" d="M124.5,190.4c-0.2-0.5,0-1.1,0.6-1.3c0.6-0.2,1.2,0,1.4,0.4c0.2,0.5,0,1.1-0.6,1.3
	C125.4,191.1,124.7,190.9,124.5,190.4z"/>
<path class="st6" d="M130.1,192.5c-0.2-0.5,0-1.1,0.6-1.3c0.6-0.2,1.2,0,1.4,0.4c0.2,0.5,0,1.1-0.6,1.3
	C130.9,193.2,130.3,193,130.1,192.5z"/>
<path class="st6" d="M135.6,194.6c-0.2-0.5,0-1.1,0.6-1.3c0.6-0.2,1.2,0,1.4,0.4c0.2,0.5,0,1.1-0.6,1.3
	C136.5,195.3,135.9,195.1,135.6,194.6z"/>
<path class="st6" d="M142.9,191.6c-0.2-0.5,0-1.1,0.6-1.3c0.6-0.2,1.2,0,1.4,0.4c0.2,0.5,0,1.1-0.6,1.3
	C143.8,192.3,143.1,192.1,142.9,191.6z"/>
<path class="st6" d="M137.4,189c-0.2-0.5,0-1.1,0.6-1.3c0.6-0.2,1.2,0,1.4,0.4c0.2,0.5,0,1.1-0.6,1.3
	C138.3,189.7,137.6,189.5,137.4,189z"/>
<path class="st6" d="M131.7,187.2c-0.2-0.5,0-1.1,0.6-1.3c0.6-0.2,1.2,0,1.4,0.4c0.2,0.5,0,1.1-0.6,1.3
	C132.6,187.8,132,187.6,131.7,187.2z"/>
<path class="st6" d="M125.9,184.8c-0.2-0.5,0-1.1,0.6-1.3c0.6-0.2,1.2,0,1.4,0.4c0.2,0.5,0,1.1-0.6,1.3
	C126.8,185.5,126.2,185.3,125.9,184.8z"/>
<path class="st6" d="M127.8,179.5c-0.2-0.5,0-1.1,0.6-1.3c0.6-0.2,1.2,0,1.4,0.4c0.2,0.5,0,1.1-0.6,1.3
	C128.7,180.2,128.1,180,127.8,179.5z"/>
<path class="st6" d="M133.6,181.8c-0.2-0.5,0-1.1,0.6-1.3c0.6-0.2,1.2,0,1.4,0.4c0.2,0.5,0,1.1-0.6,1.3
	C134.5,182.4,133.8,182.2,133.6,181.8z"/>
<path class="st6" d="M139.1,183.8c-0.2-0.5,0-1.1,0.6-1.3c0.6-0.2,1.2,0,1.4,0.4s0,1.1-0.6,1.3C140,184.5,139.3,184.3,139.1,183.8z"
	/>
<path class="st6" d="M144.7,185.8c-0.2-0.5,0-1.1,0.6-1.3c0.6-0.2,1.2,0,1.4,0.4c0.2,0.5,0,1.1-0.6,1.3
	C145.5,186.4,144.9,186.2,144.7,185.8z"/>
<path class="st6" d="M140.9,178.4c-0.2-0.5,0-1.1,0.6-1.3c0.6-0.2,1.2,0,1.4,0.4c0.2,0.5,0,1.1-0.6,1.3
	C141.8,179.1,141.2,178.9,140.9,178.4z"/>
<path class="st6" d="M178.3,176.5c-0.2-0.5,0-1.1,0.6-1.3c0.6-0.2,1.2,0,1.4,0.4s0,1.1-0.6,1.3C179.1,177.1,178.5,177,178.3,176.5z"
	/>
<path class="st6" d="M174.2,168.9c-0.2-0.5,0-1.1,0.6-1.3c0.6-0.2,1.2,0,1.4,0.4c0.2,0.5,0,1.1-0.6,1.3
	C175.1,169.5,174.4,169.3,174.2,168.9z"/>
<path class="st6" d="M179.8,171c-0.2-0.5,0-1.1,0.6-1.3c0.6-0.2,1.2,0,1.4,0.4c0.2,0.5,0,1.1-0.6,1.3
	C180.7,171.6,180,171.4,179.8,171z"/>
<path class="st6" d="M185.4,173c-0.2-0.5,0-1.1,0.6-1.3c0.6-0.2,1.2,0,1.4,0.4c0.2,0.5,0,1.1-0.6,1.3
	C186.3,173.7,185.6,173.5,185.4,173z"/>
<path class="st6" d="M192.6,170.1c-0.2-0.5,0-1.1,0.6-1.3c0.6-0.2,1.2,0,1.4,0.4c0.2,0.5,0,1.1-0.6,1.3
	C193.5,170.7,192.9,170.5,192.6,170.1z"/>
<path class="st6" d="M187.1,167.5c-0.2-0.5,0-1.1,0.6-1.3c0.6-0.2,1.2,0,1.4,0.4c0.2,0.5,0,1.1-0.6,1.3
	C188,168.1,187.4,167.9,187.1,167.5z"/>
<path class="st6" d="M181.4,165.6c-0.2-0.5,0-1.1,0.6-1.3c0.6-0.2,1.2,0,1.4,0.4c0.2,0.5,0,1.1-0.6,1.3S181.7,166.1,181.4,165.6z"/>
<path class="st6" d="M175.7,163.2c-0.2-0.5,0-1.1,0.6-1.3c0.6-0.2,1.2,0,1.4,0.4c0.2,0.5,0,1.1-0.6,1.3
	C176.5,163.9,175.9,163.7,175.7,163.2z"/>
<path class="st6" d="M177.6,157.9c-0.2-0.5,0-1.1,0.6-1.3c0.6-0.2,1.2,0,1.4,0.4c0.2,0.5,0,1.1-0.6,1.3
	C178.5,158.6,177.8,158.4,177.6,157.9z"/>
<path class="st6" d="M183.3,160.2c-0.2-0.5,0-1.1,0.6-1.3c0.6-0.2,1.2,0,1.4,0.4c0.2,0.5,0,1.1-0.6,1.3
	C184.2,160.8,183.6,160.7,183.3,160.2z"/>
<path class="st6" d="M188.8,162.3c-0.2-0.5,0-1.1,0.6-1.3c0.6-0.2,1.2,0,1.4,0.4c0.2,0.5,0,1.1-0.6,1.3
	C189.7,162.9,189.1,162.7,188.8,162.3z"/>
<path class="st6" d="M194.4,164.2c-0.2-0.5,0-1.1,0.6-1.3c0.6-0.2,1.2,0,1.4,0.4c0.2,0.5,0,1.1-0.6,1.3
	C195.3,164.9,194.6,164.7,194.4,164.2z"/>
<path class="st6" d="M190.7,156.9c-0.2-0.5,0-1.1,0.6-1.3c0.6-0.2,1.2,0,1.4,0.4c0.2,0.5,0,1.1-0.6,1.3
	C191.6,157.5,190.9,157.3,190.7,156.9z"/>
<g>
	<path class="st8" d="M174.4,108l-2.8-1.8l1.1-6.4c0-0.1,0-0.2-0.1-0.2l-1.9-1.3c-0.1,0-0.2,0-0.2,0l-5.4,3.6l-2.8-1.8
		c-0.1-0.1-0.2,0-0.3,0.1l-0.8,1.3c-0.1,0.1,0,0.2,0.1,0.3l2.1,1.3l-5.3,3.5c-0.1,0.1-0.1,0.3,0,0.4l1.6,1c0.1,0,0.2,0,0.2,0
		l10.6-7.3l-2.3,12.7c0,0.1,0,0.2,0.1,0.2l1.7,1.1c0.1,0.1,0.3,0,0.3-0.1l1-6.3l2,1.3c0.1,0.1,0.2,0,0.3-0.1l0.8-1.3
		C174.5,108.2,174.5,108,174.4,108z"/>
</g>
<path class="st7" d="M167,164.5l6,13.7c0.5,1.2,0,2.5-1.2,3l-14.8,6.5c-1.2,0.5-2.5,0-3-1.2l-6-13.7c-0.5-1.2,0-2.5,1.2-3l14.8-6.5
	C165.1,162.8,166.5,163.3,167,164.5z"/>
<g>
	<path class="st8" d="M165.6,172.8l-2.4,1l-3.8-3.5c0,0-0.1-0.1-0.2,0l-1.7,0.7c-0.1,0-0.1,0.1-0.1,0.2l0,5.2l-2.5,1.1
		c-0.1,0-0.1,0.1-0.1,0.2l0.5,1.1c0,0.1,0.1,0.1,0.2,0.1l1.8-0.8l0,5.1c0,0.1,0.1,0.2,0.2,0.2l1.4-0.6c0.1,0,0.1-0.1,0.1-0.2
		l-0.1-10.3l7.4,7.2c0,0,0.1,0.1,0.2,0l1.5-0.6c0.1,0,0.1-0.2,0-0.3l-3.7-3.5l1.8-0.8c0.1,0,0.1-0.1,0.1-0.2l-0.5-1.1
		C165.8,172.8,165.7,172.8,165.6,172.8z"/>
</g>
</svg>
